<svg width="40" height="60" viewBox="0 0 40 60" fill="none" xmlns="http://www.w3.org/2000/svg">
<g clip-path="url(#clip0_2008_1354)">
<path d="M34.142 33.985L23.535 44.544C22.5954 45.4768 21.325 46.0003 20.001 46.0003C18.677 46.0003 17.4066 45.4768 16.467 44.544L5.857 33.985C4.00075 32.1406 2.52759 29.9474 1.52231 27.5315C0.517042 25.1156 -0.000488281 22.5247 -0.000488281 19.908C-0.000488281 17.2912 0.517042 14.7004 1.52231 12.2844C2.52759 9.86852 4.00075 7.67528 5.857 5.83095C9.61611 2.09616 14.7 0 19.999 0C25.298 0 30.3819 2.09616 34.141 5.83095C35.9973 7.67528 37.4704 9.86852 38.4757 12.2844C39.481 14.7004 39.9985 17.2912 39.9985 19.908C39.9985 22.5247 39.481 25.1156 38.4757 27.5315C37.4704 29.9474 35.9983 32.1406 34.142 33.985Z" fill="#FD853A"/>
<path d="M20 36C28.8366 36 36 28.8366 36 20C36 11.1634 28.8366 4 20 4C11.1634 4 4 11.1634 4 20C4 28.8366 11.1634 36 20 36Z" fill="white"/>
<path d="M12 22.4871C11.7348 22.487 11.4805 22.3816 11.293 22.1941C11.1056 22.0066 11.0002 21.7523 11.0002 21.4871C11.0002 21.2219 11.1056 20.9676 11.293 20.7801L19.293 12.7801C19.4806 12.5926 19.7349 12.4873 20 12.4873C20.2652 12.4873 20.5195 12.5926 20.707 12.7801C20.8945 12.9676 20.9998 13.2219 20.9998 13.4871C20.9998 13.7523 20.8945 14.0066 20.707 14.1941L12.707 22.1941C12.5195 22.3816 12.2652 22.487 12 22.4871Z" fill="#FD853A"/>
<path d="M28 22.4871C28.2652 22.4871 28.5196 22.3817 28.7071 22.1942C28.8946 22.0066 29 21.7523 29 21.4871V13.4871C29 13.2218 28.8946 12.9675 28.7071 12.78C28.5196 12.5924 28.2652 12.4871 28 12.4871H12C11.7348 12.4871 11.4804 12.5924 11.2929 12.78C11.1054 12.9675 11 13.2218 11 13.4871V21.4871C11 21.7523 11.1054 22.0066 11.2929 22.1942C11.4804 22.3817 11.7348 22.4871 12 22.4871H14V26.9991H12C11.7348 26.9991 11.4804 27.1044 11.2929 27.292C11.1054 27.4795 11 27.7338 11 27.9991C11 28.2643 11.1054 28.5186 11.2929 28.7062C11.4804 28.8937 11.7348 28.9991 12 28.9991H28C28.2652 28.9991 28.5196 28.8937 28.7071 28.7062C28.8946 28.5186 29 28.2643 29 27.9991C29 27.7338 28.8946 27.4795 28.7071 27.292C28.5196 27.1044 28.2652 26.9991 28 26.9991H26V22.4871H28ZM22.316 20.4871L27 15.8041V20.4871H22.316ZM13 14.4871H25.488L19.488 20.4871H13V14.4871ZM24 26.9991H16V22.4871H24V26.9991Z" fill="#FD853A"/>
<path d="M20 60C24.4183 60 28 56.4183 28 52C28 47.5817 24.4183 44 20 44C15.5817 44 12 47.5817 12 52C12 56.4183 15.5817 60 20 60Z" fill="#FD853A" fill-opacity="0.3"/>
<path d="M20 56C22.2091 56 24 54.2091 24 52C24 49.7909 22.2091 48 20 48C17.7909 48 16 49.7909 16 52C16 54.2091 17.7909 56 20 56Z" fill="#FD853A"/>
</g>
<defs>
<clipPath id="clip0_2008_1354">
<rect width="40" height="60" fill="white"/>
</clipPath>
</defs>
</svg>
